<svg width="513" height="512" viewBox="0 0 513 512" fill="none" xmlns="http://www.w3.org/2000/svg">
<g clip-path="url(#clip0_413_132)">
<path d="M199.947 233.632L160.159 190.316L199.947 147H242.087L202.103 190.316L242.087 233.632H199.947Z" fill="#263238"/>
<path d="M269.288 147H311.428L351.216 190.316L311.428 233.632H269.288L309.271 190.316L269.288 147Z" fill="#263238"/>
<path d="M468.126 285.6C479.746 273.619 497.002 255.829 506.475 236.02C512.398 223.639 515.693 209.749 512.495 195.357C509.281 180.892 499.762 167.054 482.279 154.339L481.633 153.87L480.9 153.558C440.845 136.535 387.297 114.516 342.754 96.748C320.485 87.866 300.435 80.033 285.429 74.414C277.935 71.607 271.646 69.333 266.95 67.753C264.609 66.965 262.592 66.326 260.984 65.875C259.734 65.525 257.796 65 256.163 65C254.53 65 252.591 65.524 251.341 65.875C249.734 66.326 247.717 66.965 245.376 67.752C240.679 69.333 234.39 71.606 226.895 74.413C211.89 80.032 191.837 87.866 169.568 96.748C125.024 114.515 71.4761 136.535 31.4231 153.558L30.6891 153.87L30.0441 154.339C12.5591 167.054 3.04014 180.892 -0.173859 195.357C-3.37186 209.749 -0.076859 223.639 5.84514 236.02C15.3161 255.824 32.5671 273.611 44.1851 285.592L44.1871 285.594C45.6031 287.055 46.9351 288.427 48.1591 289.708L48.1631 329.737C48.0831 329.869 47.9911 330.026 47.9051 330.17C47.6361 330.621 47.3471 331.109 47.0231 331.668C45.6171 334.088 43.7201 337.489 41.7531 341.422C41.0831 342.762 40.3911 344.195 39.6981 345.692C36.4481 352.719 33.1921 361.234 32.2201 369.008L31.8561 371.916L33.4571 374.37C50.0331 399.787 83.0601 417.749 122.25 429.417C161.775 441.185 209.071 447 256.159 447C303.246 447 350.542 441.185 390.066 429.417C429.255 417.749 462.284 399.787 478.86 374.37L480.46 371.916L480.097 369.008C479.125 361.234 475.87 352.719 472.619 345.693C471.927 344.196 471.233 342.762 470.563 341.422C468.596 337.489 466.701 334.088 465.293 331.668C464.969 331.109 464.68 330.62 464.411 330.17C464.327 330.028 464.236 329.874 464.158 329.744V289.707C465.382 288.428 466.712 287.057 468.126 285.6ZM385.501 414.083C347.775 425.315 302.07 431 256.159 431C210.246 431 164.542 425.315 126.817 414.083C90.3181 403.216 62.6361 387.562 48.5881 368.143C49.2851 364.893 50.4811 361.326 51.9211 357.738C69.8391 372.728 94.4951 384.154 122.251 392.418C161.775 404.185 209.071 410 256.159 410C274.719 410 293.304 409.084 311.439 407.268C313.505 407.061 315.565 406.841 317.619 406.611C320.176 405.273 321.961 402.674 322.159 399.639C322.172 399.453 322.187 399.268 322.187 399.078C322.187 398.888 322.171 398.703 322.159 398.517C321.908 394.676 319.115 391.531 315.439 390.76C313.719 390.952 311.99 391.128 310.259 391.303C292.579 393.087 274.39 393.999 256.158 393.999C210.245 393.999 164.541 388.314 126.815 377.082C97.9251 368.48 74.5671 356.876 59.1131 342.782C59.6801 341.755 60.2111 340.82 60.6861 339.999H451.63C452.105 340.82 452.635 341.755 453.203 342.783C437.75 356.876 414.391 368.48 385.501 377.082C379.627 378.831 373.544 380.434 367.313 381.913C365.616 382.315 363.905 382.707 362.183 383.09C360.068 384.361 358.555 386.521 358.16 389.057C358.093 389.488 358.048 389.925 358.048 390.374C358.048 390.823 358.093 391.261 358.16 391.691C358.734 395.372 361.663 398.263 365.361 398.781C367.37 398.336 369.354 397.868 371.336 397.395C377.737 395.87 384.004 394.221 390.067 392.416C417.822 384.152 442.478 372.728 460.397 357.737C461.837 361.325 463.033 364.891 463.73 368.141C449.681 387.563 421.999 403.216 385.501 414.083ZM64.1591 295H448.159V324H64.1631L64.1591 295ZM458.792 275.078C456.78 277.159 454.869 279.136 453.111 281H59.2051C57.4451 279.134 55.5331 277.154 53.5181 275.07C41.8671 263.013 26.8341 247.459 18.4751 229.98C13.3961 219.361 11.1911 208.751 13.4931 198.393C15.7471 188.249 22.5691 177.252 37.6421 166.126C77.5071 149.192 130.572 127.374 174.753 109.752C196.985 100.884 216.933 93.092 231.803 87.524C239.245 84.737 245.363 82.527 249.838 81.021C252.083 80.266 253.844 79.712 255.117 79.355C255.592 79.222 255.932 79.136 256.16 79.082C256.389 79.137 256.729 79.222 257.204 79.355C258.478 79.712 260.238 80.266 262.482 81.022C266.958 82.527 273.075 84.738 280.517 87.525C295.388 93.093 315.334 100.884 337.566 109.753C381.747 127.376 434.811 149.193 474.677 166.127C489.75 177.253 496.573 188.25 498.826 198.394C501.128 208.752 498.923 219.362 493.844 229.981C485.484 247.462 470.445 263.021 458.792 275.078Z" fill="#263238"/>
</g>
</svg>
